<?xml version="1.0" encoding="UTF-8" standalone="no"?>
<!DOCTYPE svg PUBLIC "-//W3C//DTD SVG 1.1//EN"
 "http://www.w3.org/Graphics/SVG/1.1/DTD/svg11.dtd">
<!-- Generated by graphviz version 2.40.1 (20161225.0304)
 -->
<!-- Title: dependencies Pages: 1 -->
<svg width="686pt" height="284pt"
 viewBox="0.00 0.00 686.00 284.00" xmlns="http://www.w3.org/2000/svg" xmlns:xlink="http://www.w3.org/1999/xlink">
<g id="graph0" class="graph" transform="scale(1 1) rotate(0) translate(4 280)">
<title>dependencies</title>
<polygon fill="#ffffff" stroke="transparent" points="-4,4 -4,-280 682,-280 682,4 -4,4"/>
<text text-anchor="start" x="318.0091" y="-42.4" font-family="sans-serif" font-weight="bold" font-size="14.00" fill="#000000">Legend</text>
<polygon fill="#ffffb3" stroke="transparent" points="105,-10 105,-30 125,-30 125,-10 105,-10"/>
<text text-anchor="start" x="128.629" y="-15.4" font-family="sans-serif" font-size="14.00" fill="#000000"> &#160;Declarations</text>
<polygon fill="#8dd3c7" stroke="transparent" points="218,-10 218,-30 238,-30 238,-10 218,-10"/>
<text text-anchor="start" x="241.7251" y="-15.4" font-family="sans-serif" font-size="14.00" fill="#000000"> &#160;Module</text>
<polygon fill="#80b1d3" stroke="transparent" points="304,-10 304,-30 324,-30 324,-10 304,-10"/>
<text text-anchor="start" x="327.7812" y="-15.4" font-family="sans-serif" font-size="14.00" fill="#000000"> &#160;Bootstrap</text>
<polygon fill="#fdb462" stroke="transparent" points="401,-10 401,-30 421,-30 421,-10 401,-10"/>
<text text-anchor="start" x="424.6732" y="-15.4" font-family="sans-serif" font-size="14.00" fill="#000000"> &#160;Providers</text>
<polygon fill="#fb8072" stroke="transparent" points="497,-10 497,-30 517,-30 517,-10 497,-10"/>
<text text-anchor="start" x="520.7258" y="-15.4" font-family="sans-serif" font-size="14.00" fill="#000000"> &#160;Exports</text>
<g id="clust1" class="cluster">
<title>cluster_PanelModule</title>
<polygon fill="none" stroke="#000000" stroke-dasharray="1,5" points="8,-70 8,-268 670,-268 670,-70 8,-70"/>
</g>
<g id="clust2" class="cluster">
<title>cluster_PanelModule_declarations</title>
<polygon fill="none" stroke="#000000" points="292,-78 292,-130 662,-130 662,-78 292,-78"/>
</g>
<g id="clust6" class="cluster">
<title>cluster_PanelModule_imports</title>
<polygon fill="none" stroke="#000000" points="16,-78 16,-130 284,-130 284,-78 16,-78"/>
</g>
<g id="clust7" class="cluster">
<title>cluster_PanelModule_exports</title>
<polygon fill="none" stroke="#000000" points="285,-208 285,-260 417,-260 417,-208 285,-208"/>
</g>
<!-- GpsComponent -->
<g id="node1" class="node">
<title>GpsComponent</title>
<polygon fill="#ffffb3" stroke="#000000" points="653.8837,-122 550.1163,-122 550.1163,-86 653.8837,-86 653.8837,-122"/>
<text text-anchor="middle" x="602" y="-99.8" font-family="Times,serif" font-size="14.00" fill="#000000">GpsComponent</text>
</g>
<!-- PanelModule -->
<g id="node4" class="node">
<title>PanelModule</title>
<polygon fill="#8dd3c7" stroke="#000000" points="396.1529,-187 393.1529,-191 372.1529,-191 369.1529,-187 305.8471,-187 305.8471,-151 396.1529,-151 396.1529,-187"/>
<text text-anchor="middle" x="351" y="-164.8" font-family="Times,serif" font-size="14.00" fill="#000000">PanelModule</text>
</g>
<!-- GpsComponent&#45;&gt;PanelModule -->
<g id="edge1" class="edge">
<title>GpsComponent&#45;&gt;PanelModule</title>
<path fill="none" stroke="#000000" d="M602,-122.2843C602,-143.3211 602,-175 602,-175 602,-175 406.1637,-175 406.1637,-175"/>
<polygon fill="#000000" stroke="#000000" points="406.1637,-171.5001 396.1637,-175 406.1636,-178.5001 406.1637,-171.5001"/>
</g>
<!-- PanelComponent -->
<g id="node2" class="node">
<title>PanelComponent</title>
<polygon fill="#ffffb3" stroke="#000000" points="532.4356,-122 419.5644,-122 419.5644,-86 532.4356,-86 532.4356,-122"/>
<text text-anchor="middle" x="476" y="-99.8" font-family="Times,serif" font-size="14.00" fill="#000000">PanelComponent</text>
</g>
<!-- PanelComponent&#45;&gt;PanelModule -->
<g id="edge2" class="edge">
<title>PanelComponent&#45;&gt;PanelModule</title>
<path fill="none" stroke="#000000" d="M476,-122.0225C476,-139.3734 476,-163 476,-163 476,-163 406.4815,-163 406.4815,-163"/>
<polygon fill="#000000" stroke="#000000" points="406.4815,-159.5001 396.4815,-163 406.4814,-166.5001 406.4815,-159.5001"/>
</g>
<!-- TspComponent -->
<g id="node3" class="node">
<title>TspComponent</title>
<polygon fill="#ffffb3" stroke="#000000" points="402.3301,-122 299.6699,-122 299.6699,-86 402.3301,-86 402.3301,-122"/>
<text text-anchor="middle" x="351" y="-99.8" font-family="Times,serif" font-size="14.00" fill="#000000">TspComponent</text>
</g>
<!-- TspComponent&#45;&gt;PanelModule -->
<g id="edge3" class="edge">
<title>TspComponent&#45;&gt;PanelModule</title>
<path fill="none" stroke="#000000" d="M351,-122.1061C351,-122.1061 351,-140.991 351,-140.991"/>
<polygon fill="#000000" stroke="#000000" points="347.5001,-140.9909 351,-150.991 354.5001,-140.991 347.5001,-140.9909"/>
</g>
<!-- PanelComponent  -->
<g id="node7" class="node">
<title>PanelComponent </title>
<polygon fill="#fb8072" stroke="#000000" points="408.9348,-252 293.0652,-252 293.0652,-216 408.9348,-216 408.9348,-252"/>
<text text-anchor="middle" x="351" y="-229.8" font-family="Times,serif" font-size="14.00" fill="#000000">PanelComponent </text>
</g>
<!-- PanelModule&#45;&gt;PanelComponent  -->
<g id="edge6" class="edge">
<title>PanelModule&#45;&gt;PanelComponent </title>
<path fill="none" stroke="#000000" stroke-dasharray="5,2" d="M351,-187.1061C351,-187.1061 351,-205.991 351,-205.991"/>
<polygon fill="#000000" stroke="#000000" points="347.5001,-205.9909 351,-215.991 354.5001,-205.991 347.5001,-205.9909"/>
</g>
<!-- GlobalModule -->
<g id="node5" class="node">
<title>GlobalModule</title>
<polygon fill="#8dd3c7" stroke="#000000" points="275.6528,-122 272.6528,-126 251.6528,-126 248.6528,-122 178.3472,-122 178.3472,-86 275.6528,-86 275.6528,-122"/>
<text text-anchor="middle" x="227" y="-99.8" font-family="Times,serif" font-size="14.00" fill="#000000">GlobalModule</text>
</g>
<!-- GlobalModule&#45;&gt;PanelModule -->
<g id="edge4" class="edge">
<title>GlobalModule&#45;&gt;PanelModule</title>
<path fill="none" stroke="#000000" d="M227,-122.0225C227,-139.3734 227,-163 227,-163 227,-163 295.5311,-163 295.5311,-163"/>
<polygon fill="#000000" stroke="#000000" points="295.5311,-166.5001 305.5311,-163 295.5311,-159.5001 295.5311,-166.5001"/>
</g>
<!-- PanelRoutingModule -->
<g id="node6" class="node">
<title>PanelRoutingModule</title>
<polygon fill="#8dd3c7" stroke="#000000" points="159.7702,-122 156.7702,-126 135.7702,-126 132.7702,-122 24.2298,-122 24.2298,-86 159.7702,-86 159.7702,-122"/>
<text text-anchor="middle" x="92" y="-99.8" font-family="Times,serif" font-size="14.00" fill="#000000">PanelRoutingModule</text>
</g>
<!-- PanelRoutingModule&#45;&gt;PanelModule -->
<g id="edge5" class="edge">
<title>PanelRoutingModule&#45;&gt;PanelModule</title>
<path fill="none" stroke="#000000" d="M92,-122.2843C92,-143.3211 92,-175 92,-175 92,-175 295.5893,-175 295.5893,-175"/>
<polygon fill="#000000" stroke="#000000" points="295.5893,-178.5001 305.5893,-175 295.5892,-171.5001 295.5893,-178.5001"/>
</g>
</g>
</svg>
