<?xml version="1.0" encoding="UTF-8" standalone="no"?>
<!DOCTYPE svg PUBLIC "-//W3C//DTD SVG 1.1//EN"
 "http://www.w3.org/Graphics/SVG/1.1/DTD/svg11.dtd">
<!-- Generated by graphviz version 2.40.1 (20161225.0304)
 -->
<!-- Title: dependencies Pages: 1 -->
<svg width="504pt" height="284pt"
 viewBox="0.00 0.00 504.00 284.00" xmlns="http://www.w3.org/2000/svg" xmlns:xlink="http://www.w3.org/1999/xlink">
<g id="graph0" class="graph" transform="scale(1 1) rotate(0) translate(4 280)">
<title>dependencies</title>
<polygon fill="#ffffff" stroke="transparent" points="-4,4 -4,-280 500,-280 500,4 -4,4"/>
<text text-anchor="start" x="227.0091" y="-42.4" font-family="sans-serif" font-weight="bold" font-size="14.00" fill="#000000">Legend</text>
<polygon fill="#ffffb3" stroke="transparent" points="14,-10 14,-30 34,-30 34,-10 14,-10"/>
<text text-anchor="start" x="37.629" y="-15.4" font-family="sans-serif" font-size="14.00" fill="#000000"> &#160;Declarations</text>
<polygon fill="#8dd3c7" stroke="transparent" points="127,-10 127,-30 147,-30 147,-10 127,-10"/>
<text text-anchor="start" x="150.7251" y="-15.4" font-family="sans-serif" font-size="14.00" fill="#000000"> &#160;Module</text>
<polygon fill="#80b1d3" stroke="transparent" points="213,-10 213,-30 233,-30 233,-10 213,-10"/>
<text text-anchor="start" x="236.7812" y="-15.4" font-family="sans-serif" font-size="14.00" fill="#000000"> &#160;Bootstrap</text>
<polygon fill="#fdb462" stroke="transparent" points="310,-10 310,-30 330,-30 330,-10 310,-10"/>
<text text-anchor="start" x="333.6732" y="-15.4" font-family="sans-serif" font-size="14.00" fill="#000000"> &#160;Providers</text>
<polygon fill="#fb8072" stroke="transparent" points="406,-10 406,-30 426,-30 426,-10 406,-10"/>
<text text-anchor="start" x="429.7258" y="-15.4" font-family="sans-serif" font-size="14.00" fill="#000000"> &#160;Exports</text>
<g id="clust1" class="cluster">
<title>cluster_GlobalModule</title>
<polygon fill="none" stroke="#000000" stroke-dasharray="1,5" points="21,-70 21,-268 475,-268 475,-70 21,-70"/>
</g>
<g id="clust2" class="cluster">
<title>cluster_GlobalModule_declarations</title>
<polygon fill="none" stroke="#000000" points="29,-78 29,-130 467,-130 467,-78 29,-78"/>
</g>
<g id="clust7" class="cluster">
<title>cluster_GlobalModule_exports</title>
<polygon fill="none" stroke="#000000" points="110,-208 110,-260 381,-260 381,-208 110,-208"/>
</g>
<!-- ButtonComponent -->
<g id="node1" class="node">
<title>ButtonComponent</title>
<polygon fill="#ffffb3" stroke="#000000" points="458.9511,-122 339.0489,-122 339.0489,-86 458.9511,-86 458.9511,-122"/>
<text text-anchor="middle" x="399" y="-99.8" font-family="Times,serif" font-size="14.00" fill="#000000">ButtonComponent</text>
</g>
<!-- GlobalModule -->
<g id="node4" class="node">
<title>GlobalModule</title>
<polygon fill="#8dd3c7" stroke="#000000" points="291.6528,-187 288.6528,-191 267.6528,-191 264.6528,-187 194.3472,-187 194.3472,-151 291.6528,-151 291.6528,-187"/>
<text text-anchor="middle" x="243" y="-164.8" font-family="Times,serif" font-size="14.00" fill="#000000">GlobalModule</text>
</g>
<!-- ButtonComponent&#45;&gt;GlobalModule -->
<g id="edge1" class="edge">
<title>ButtonComponent&#45;&gt;GlobalModule</title>
<path fill="none" stroke="#000000" d="M356.375,-122.1061C356.375,-141.3391 356.375,-169 356.375,-169 356.375,-169 301.7392,-169 301.7392,-169"/>
<polygon fill="#000000" stroke="#000000" points="301.7392,-165.5001 291.7392,-169 301.7391,-172.5001 301.7392,-165.5001"/>
</g>
<!-- ErreurPopUpComponent -->
<g id="node2" class="node">
<title>ErreurPopUpComponent</title>
<polygon fill="#ffffb3" stroke="#000000" points="320.9706,-122 165.0294,-122 165.0294,-86 320.9706,-86 320.9706,-122"/>
<text text-anchor="middle" x="243" y="-99.8" font-family="Times,serif" font-size="14.00" fill="#000000">ErreurPopUpComponent</text>
</g>
<!-- ErreurPopUpComponent&#45;&gt;GlobalModule -->
<g id="edge2" class="edge">
<title>ErreurPopUpComponent&#45;&gt;GlobalModule</title>
<path fill="none" stroke="#000000" d="M243,-122.1061C243,-122.1061 243,-140.991 243,-140.991"/>
<polygon fill="#000000" stroke="#000000" points="239.5001,-140.9909 243,-150.991 246.5001,-140.991 239.5001,-140.9909"/>
</g>
<!-- InputComponent -->
<g id="node3" class="node">
<title>InputComponent</title>
<polygon fill="#ffffb3" stroke="#000000" points="147.3837,-122 36.6163,-122 36.6163,-86 147.3837,-86 147.3837,-122"/>
<text text-anchor="middle" x="92" y="-99.8" font-family="Times,serif" font-size="14.00" fill="#000000">InputComponent</text>
</g>
<!-- InputComponent&#45;&gt;GlobalModule -->
<g id="edge3" class="edge">
<title>InputComponent&#45;&gt;GlobalModule</title>
<path fill="none" stroke="#000000" d="M132.625,-122.1061C132.625,-141.3391 132.625,-169 132.625,-169 132.625,-169 184.2666,-169 184.2666,-169"/>
<polygon fill="#000000" stroke="#000000" points="184.2667,-172.5001 194.2666,-169 184.2666,-165.5001 184.2667,-172.5001"/>
</g>
<!-- ButtonComponent  -->
<g id="node5" class="node">
<title>ButtonComponent </title>
<polygon fill="#fb8072" stroke="#000000" points="373.4502,-252 250.5498,-252 250.5498,-216 373.4502,-216 373.4502,-252"/>
<text text-anchor="middle" x="312" y="-229.8" font-family="Times,serif" font-size="14.00" fill="#000000">ButtonComponent </text>
</g>
<!-- GlobalModule&#45;&gt;ButtonComponent  -->
<g id="edge4" class="edge">
<title>GlobalModule&#45;&gt;ButtonComponent </title>
<path fill="none" stroke="#000000" stroke-dasharray="5,2" d="M271.1755,-187.1061C271.1755,-187.1061 271.1755,-205.991 271.1755,-205.991"/>
<polygon fill="#000000" stroke="#000000" points="267.6756,-205.9909 271.1755,-215.991 274.6756,-205.991 267.6756,-205.9909"/>
</g>
<!-- InputComponent  -->
<g id="node6" class="node">
<title>InputComponent </title>
<polygon fill="#fb8072" stroke="#000000" points="232.3842,-252 117.6158,-252 117.6158,-216 232.3842,-216 232.3842,-252"/>
<text text-anchor="middle" x="175" y="-229.8" font-family="Times,serif" font-size="14.00" fill="#000000">InputComponent </text>
</g>
<!-- GlobalModule&#45;&gt;InputComponent  -->
<g id="edge5" class="edge">
<title>GlobalModule&#45;&gt;InputComponent </title>
<path fill="none" stroke="#000000" stroke-dasharray="5,2" d="M213.1829,-187.1061C213.1829,-187.1061 213.1829,-205.991 213.1829,-205.991"/>
<polygon fill="#000000" stroke="#000000" points="209.6829,-205.9909 213.1829,-215.991 216.6829,-205.991 209.6829,-205.9909"/>
</g>
</g>
</svg>
