<?xml version="1.0" encoding="UTF-8" standalone="no"?>
<!DOCTYPE svg PUBLIC "-//W3C//DTD SVG 1.1//EN"
 "http://www.w3.org/Graphics/SVG/1.1/DTD/svg11.dtd">
<!-- Generated by graphviz version 2.40.1 (20161225.0304)
 -->
<!-- Title: dependencies Pages: 1 -->
<svg width="1434pt" height="382pt"
 viewBox="0.00 0.00 1434.00 382.00" xmlns="http://www.w3.org/2000/svg" xmlns:xlink="http://www.w3.org/1999/xlink">
<g id="graph0" class="graph" transform="scale(1 1) rotate(0) translate(4 378)">
<title>dependencies</title>
<polygon fill="#ffffff" stroke="transparent" points="-4,4 -4,-378 1430,-378 1430,4 -4,4"/>
<text text-anchor="start" x="692.0091" y="-42.4" font-family="sans-serif" font-weight="bold" font-size="14.00" fill="#000000">Legend</text>
<polygon fill="#ffffb3" stroke="transparent" points="479,-10 479,-30 499,-30 499,-10 479,-10"/>
<text text-anchor="start" x="502.629" y="-15.4" font-family="sans-serif" font-size="14.00" fill="#000000"> &#160;Declarations</text>
<polygon fill="#8dd3c7" stroke="transparent" points="592,-10 592,-30 612,-30 612,-10 592,-10"/>
<text text-anchor="start" x="615.7251" y="-15.4" font-family="sans-serif" font-size="14.00" fill="#000000"> &#160;Module</text>
<polygon fill="#80b1d3" stroke="transparent" points="678,-10 678,-30 698,-30 698,-10 678,-10"/>
<text text-anchor="start" x="701.7812" y="-15.4" font-family="sans-serif" font-size="14.00" fill="#000000"> &#160;Bootstrap</text>
<polygon fill="#fdb462" stroke="transparent" points="775,-10 775,-30 795,-30 795,-10 775,-10"/>
<text text-anchor="start" x="798.6732" y="-15.4" font-family="sans-serif" font-size="14.00" fill="#000000"> &#160;Providers</text>
<polygon fill="#fb8072" stroke="transparent" points="871,-10 871,-30 891,-30 891,-10 871,-10"/>
<text text-anchor="start" x="894.7258" y="-15.4" font-family="sans-serif" font-size="14.00" fill="#000000"> &#160;Exports</text>
<g id="clust1" class="cluster">
<title>cluster_AppModule</title>
<polygon fill="none" stroke="#000000" stroke-dasharray="1,5" points="828,-146 828,-366 1234,-366 1234,-146 828,-146"/>
</g>
<g id="clust2" class="cluster">
<title>cluster_AppModule_declarations</title>
<polygon fill="none" stroke="#000000" points="1104,-154 1104,-206 1226,-206 1226,-154 1104,-154"/>
</g>
<g id="clust4" class="cluster">
<title>cluster_AppModule_imports</title>
<polygon fill="none" stroke="#000000" points="836,-154 836,-206 1096,-206 1096,-154 836,-154"/>
</g>
<g id="clust6" class="cluster">
<title>cluster_AppModule_bootstrap</title>
<polygon fill="none" stroke="#000000" points="962,-306 962,-358 1086,-358 1086,-306 962,-306"/>
</g>
<g id="clust14" class="cluster">
<title>cluster_GlobalModule</title>
<polygon fill="none" stroke="#000000" stroke-dasharray="1,5" points="543,-70 543,-138 1276,-138 1276,-70 543,-70"/>
</g>
<g id="clust15" class="cluster">
<title>cluster_GlobalModule_declarations</title>
<polygon fill="none" stroke="#000000" points="830,-78 830,-130 1268,-130 1268,-78 830,-78"/>
</g>
<g id="clust20" class="cluster">
<title>cluster_GlobalModule_exports</title>
<polygon fill="none" stroke="#000000" points="551,-78 551,-130 822,-130 822,-78 551,-78"/>
</g>
<g id="clust23" class="cluster">
<title>cluster_MainModule</title>
<polygon fill="none" stroke="#000000" stroke-dasharray="1,5" points="180,-222 180,-358 540,-358 540,-222 180,-222"/>
</g>
<g id="clust24" class="cluster">
<title>cluster_MainModule_declarations</title>
<polygon fill="none" stroke="#000000" points="188,-230 188,-282 314,-282 314,-230 188,-230"/>
</g>
<g id="clust26" class="cluster">
<title>cluster_MainModule_imports</title>
<polygon fill="none" stroke="#000000" points="322,-230 322,-282 532,-282 532,-230 322,-230"/>
</g>
<g id="clust30" class="cluster">
<title>cluster_MapModule</title>
<polygon fill="none" stroke="#000000" stroke-dasharray="1,5" points="548,-298 548,-366 820,-366 820,-298 548,-298"/>
</g>
<g id="clust31" class="cluster">
<title>cluster_MapModule_declarations</title>
<polygon fill="none" stroke="#000000" points="690,-306 690,-358 812,-358 812,-306 690,-306"/>
</g>
<g id="clust34" class="cluster">
<title>cluster_MapModule_exports</title>
<polygon fill="none" stroke="#000000" points="556,-306 556,-358 682,-358 682,-306 556,-306"/>
</g>
<g id="clust37" class="cluster">
<title>cluster_PanelModule</title>
<polygon fill="none" stroke="#000000" stroke-dasharray="1,5" points="8,-146 8,-214 694,-214 694,-146 8,-146"/>
</g>
<g id="clust38" class="cluster">
<title>cluster_PanelModule_declarations</title>
<polygon fill="none" stroke="#000000" points="316,-154 316,-206 686,-206 686,-154 316,-154"/>
</g>
<g id="clust42" class="cluster">
<title>cluster_PanelModule_imports</title>
<polygon fill="none" stroke="#000000" points="156,-154 156,-206 308,-206 308,-154 156,-154"/>
</g>
<g id="clust43" class="cluster">
<title>cluster_PanelModule_exports</title>
<polygon fill="none" stroke="#000000" points="16,-154 16,-206 148,-206 148,-154 16,-154"/>
</g>
<g id="clust52" class="cluster">
<title>cluster_PipesModule</title>
<polygon fill="none" stroke="#000000" stroke-dasharray="1,5" points="1284,-70 1284,-290 1418,-290 1418,-70 1284,-70"/>
</g>
<g id="clust53" class="cluster">
<title>cluster_PipesModule_declarations</title>
<polygon fill="none" stroke="#000000" points="1294,-78 1294,-130 1408,-130 1408,-78 1294,-78"/>
</g>
<g id="clust56" class="cluster">
<title>cluster_PipesModule_exports</title>
<polygon fill="none" stroke="#000000" points="1292,-230 1292,-282 1410,-282 1410,-230 1292,-230"/>
</g>
<!-- AppComponent -->
<g id="node1" class="node">
<title>AppComponent</title>
<polygon fill="#ffffb3" stroke="#000000" points="1217.9399,-198 1112.0601,-198 1112.0601,-162 1217.9399,-162 1217.9399,-198"/>
<text text-anchor="middle" x="1165" y="-175.8" font-family="Times,serif" font-size="14.00" fill="#000000">AppComponent</text>
</g>
<!-- AppModule -->
<g id="node2" class="node">
<title>AppModule</title>
<polygon fill="#8dd3c7" stroke="#000000" points="1065.6571,-274 1062.6571,-278 1041.6571,-278 1038.6571,-274 982.3429,-274 982.3429,-238 1065.6571,-238 1065.6571,-274"/>
<text text-anchor="middle" x="1024" y="-251.8" font-family="Times,serif" font-size="14.00" fill="#000000">AppModule</text>
</g>
<!-- AppComponent&#45;&gt;AppModule -->
<g id="edge1" class="edge">
<title>AppComponent&#45;&gt;AppModule</title>
<path fill="none" stroke="#000000" d="M1165,-198.0109C1165,-220.4852 1165,-256 1165,-256 1165,-256 1075.9229,-256 1075.9229,-256"/>
<polygon fill="#000000" stroke="#000000" points="1075.9229,-252.5001 1065.9229,-256 1075.9229,-259.5001 1075.9229,-252.5001"/>
</g>
<!-- AppComponent  -->
<g id="node5" class="node">
<title>AppComponent </title>
<polygon fill="#80b1d3" stroke="#000000" points="1078.439,-350 969.561,-350 969.561,-314 1078.439,-314 1078.439,-350"/>
<text text-anchor="middle" x="1024" y="-327.8" font-family="Times,serif" font-size="14.00" fill="#000000">AppComponent </text>
</g>
<!-- AppModule&#45;&gt;AppComponent  -->
<g id="edge4" class="edge">
<title>AppModule&#45;&gt;AppComponent </title>
<path fill="none" stroke="#000000" stroke-dasharray="1,5" d="M1024,-274.0109C1024,-274.0109 1024,-303.855 1024,-303.855"/>
<polygon fill="#000000" stroke="#000000" points="1020.5001,-303.8549 1024,-313.855 1027.5001,-303.855 1020.5001,-303.8549"/>
</g>
<!-- AppRoutingModule -->
<g id="node3" class="node">
<title>AppRoutingModule</title>
<polygon fill="#8dd3c7" stroke="#000000" points="1088.2744,-198 1085.2744,-202 1064.2744,-202 1061.2744,-198 959.7256,-198 959.7256,-162 1088.2744,-162 1088.2744,-198"/>
<text text-anchor="middle" x="1024" y="-175.8" font-family="Times,serif" font-size="14.00" fill="#000000">AppRoutingModule</text>
</g>
<!-- AppRoutingModule&#45;&gt;AppModule -->
<g id="edge2" class="edge">
<title>AppRoutingModule&#45;&gt;AppModule</title>
<path fill="none" stroke="#000000" d="M1024,-198.0109C1024,-198.0109 1024,-227.855 1024,-227.855"/>
<polygon fill="#000000" stroke="#000000" points="1020.5001,-227.8549 1024,-237.855 1027.5001,-227.855 1020.5001,-227.8549"/>
</g>
<!-- GlobalModule -->
<g id="node4" class="node">
<title>GlobalModule</title>
<polygon fill="#8dd3c7" stroke="#000000" points="941.6528,-198 938.6528,-202 917.6528,-202 914.6528,-198 844.3472,-198 844.3472,-162 941.6528,-162 941.6528,-198"/>
<text text-anchor="middle" x="893" y="-175.8" font-family="Times,serif" font-size="14.00" fill="#000000">GlobalModule</text>
</g>
<!-- GlobalModule&#45;&gt;AppModule -->
<g id="edge3" class="edge">
<title>GlobalModule&#45;&gt;AppModule</title>
<path fill="none" stroke="#000000" d="M909.2754,-198.0263C909.2754,-222.9773 909.2754,-265 909.2754,-265 909.2754,-265 972.2572,-265 972.2572,-265"/>
<polygon fill="#000000" stroke="#000000" points="972.2573,-268.5001 982.2572,-265 972.2572,-261.5001 972.2573,-268.5001"/>
</g>
<!-- ButtonComponent  -->
<g id="node9" class="node">
<title>ButtonComponent </title>
<polygon fill="#fb8072" stroke="#000000" points="814.4502,-122 691.5498,-122 691.5498,-86 814.4502,-86 814.4502,-122"/>
<text text-anchor="middle" x="753" y="-99.8" font-family="Times,serif" font-size="14.00" fill="#000000">ButtonComponent </text>
</g>
<!-- GlobalModule&#45;&gt;ButtonComponent  -->
<g id="edge8" class="edge">
<title>GlobalModule&#45;&gt;ButtonComponent </title>
<path fill="none" stroke="#000000" stroke-dasharray="5,2" d="M843.9362,-174C825.7574,-174 809.4855,-174 809.4855,-174 809.4855,-174 809.4855,-132.0267 809.4855,-132.0267"/>
<polygon fill="#000000" stroke="#000000" points="812.9855,-132.0267 809.4855,-122.0267 805.9855,-132.0268 812.9855,-132.0267"/>
</g>
<!-- InputComponent  -->
<g id="node10" class="node">
<title>InputComponent </title>
<polygon fill="#fb8072" stroke="#000000" points="673.3842,-122 558.6158,-122 558.6158,-86 673.3842,-86 673.3842,-122"/>
<text text-anchor="middle" x="616" y="-99.8" font-family="Times,serif" font-size="14.00" fill="#000000">InputComponent </text>
</g>
<!-- GlobalModule&#45;&gt;InputComponent  -->
<g id="edge9" class="edge">
<title>GlobalModule&#45;&gt;InputComponent </title>
<path fill="none" stroke="#000000" stroke-dasharray="5,2" d="M844.1707,-186C782.6134,-186 684.7334,-186 684.7334,-186 684.7334,-186 684.7334,-104 684.7334,-104 684.7334,-104 683.3834,-104 683.3834,-104"/>
<polygon fill="#000000" stroke="#000000" points="683.3835,-100.5001 673.3834,-104 683.3834,-107.5001 683.3835,-100.5001"/>
</g>
<!-- PanelModule -->
<g id="node14" class="node">
<title>PanelModule</title>
<polygon fill="#8dd3c7" stroke="#000000" points="420.1529,-274 417.1529,-278 396.1529,-278 393.1529,-274 329.8471,-274 329.8471,-238 420.1529,-238 420.1529,-274"/>
<text text-anchor="middle" x="375" y="-251.8" font-family="Times,serif" font-size="14.00" fill="#000000">PanelModule</text>
</g>
<!-- GlobalModule&#45;&gt;PanelModule -->
<g id="edge18" class="edge">
<title>GlobalModule&#45;&gt;PanelModule</title>
<path fill="none" stroke="#000000" d="M876.7246,-198.1467C876.7246,-211.7395 876.7246,-228 876.7246,-228 876.7246,-228 402.1957,-228 402.1957,-228 402.1957,-228 402.1957,-228.9793 402.1957,-228.9793"/>
<polygon fill="#000000" stroke="#000000" points="398.6958,-227.793 402.1957,-237.793 405.6958,-227.7931 398.6958,-227.793"/>
</g>
<!-- ButtonComponent -->
<g id="node6" class="node">
<title>ButtonComponent</title>
<polygon fill="#ffffb3" stroke="#000000" points="1259.9511,-122 1140.0489,-122 1140.0489,-86 1259.9511,-86 1259.9511,-122"/>
<text text-anchor="middle" x="1200" y="-99.8" font-family="Times,serif" font-size="14.00" fill="#000000">ButtonComponent</text>
</g>
<!-- ButtonComponent&#45;&gt;GlobalModule -->
<g id="edge5" class="edge">
<title>ButtonComponent&#45;&gt;GlobalModule</title>
<path fill="none" stroke="#000000" d="M1178.9972,-122.1097C1178.9972,-131.897 1178.9972,-142 1178.9972,-142 1178.9972,-142 909.2754,-142 909.2754,-142 909.2754,-142 909.2754,-151.8903 909.2754,-151.8903"/>
<polygon fill="#000000" stroke="#000000" points="905.7755,-151.8903 909.2754,-161.8903 912.7755,-151.8904 905.7755,-151.8903"/>
</g>
<!-- ErreurPopUpComponent -->
<g id="node7" class="node">
<title>ErreurPopUpComponent</title>
<polygon fill="#ffffb3" stroke="#000000" points="1121.9706,-122 966.0294,-122 966.0294,-86 1121.9706,-86 1121.9706,-122"/>
<text text-anchor="middle" x="1044" y="-99.8" font-family="Times,serif" font-size="14.00" fill="#000000">ErreurPopUpComponent</text>
</g>
<!-- ErreurPopUpComponent&#45;&gt;GlobalModule -->
<g id="edge6" class="edge">
<title>ErreurPopUpComponent&#45;&gt;GlobalModule</title>
<path fill="none" stroke="#000000" d="M965.7897,-104C958.6457,-104 954.0274,-104 954.0274,-104 954.0274,-104 954.0274,-180 954.0274,-180 954.0274,-180 951.6776,-180 951.6776,-180"/>
<polygon fill="#000000" stroke="#000000" points="951.6776,-176.5001 941.6776,-180 951.6775,-183.5001 951.6776,-176.5001"/>
</g>
<!-- InputComponent -->
<g id="node8" class="node">
<title>InputComponent</title>
<polygon fill="#ffffb3" stroke="#000000" points="948.3837,-122 837.6163,-122 837.6163,-86 948.3837,-86 948.3837,-122"/>
<text text-anchor="middle" x="893" y="-99.8" font-family="Times,serif" font-size="14.00" fill="#000000">InputComponent</text>
</g>
<!-- InputComponent&#45;&gt;GlobalModule -->
<g id="edge7" class="edge">
<title>InputComponent&#45;&gt;GlobalModule</title>
<path fill="none" stroke="#000000" d="M876.7246,-122.0109C876.7246,-122.0109 876.7246,-151.855 876.7246,-151.855"/>
<polygon fill="#000000" stroke="#000000" points="873.2247,-151.8549 876.7246,-161.855 880.2247,-151.855 873.2247,-151.8549"/>
</g>
<!-- MainComponent -->
<g id="node11" class="node">
<title>MainComponent</title>
<polygon fill="#ffffb3" stroke="#000000" points="306.3823,-274 195.6177,-274 195.6177,-238 306.3823,-238 306.3823,-274"/>
<text text-anchor="middle" x="251" y="-251.8" font-family="Times,serif" font-size="14.00" fill="#000000">MainComponent</text>
</g>
<!-- MainModule -->
<g id="node12" class="node">
<title>MainModule</title>
<polygon fill="#8dd3c7" stroke="#000000" points="419.5997,-350 416.5997,-354 395.5997,-354 392.5997,-350 330.4003,-350 330.4003,-314 419.5997,-314 419.5997,-350"/>
<text text-anchor="middle" x="375" y="-327.8" font-family="Times,serif" font-size="14.00" fill="#000000">MainModule</text>
</g>
<!-- MainComponent&#45;&gt;MainModule -->
<g id="edge10" class="edge">
<title>MainComponent&#45;&gt;MainModule</title>
<path fill="none" stroke="#000000" d="M251,-274.0109C251,-296.4852 251,-332 251,-332 251,-332 320.2332,-332 320.2332,-332"/>
<polygon fill="#000000" stroke="#000000" points="320.2332,-335.5001 330.2332,-332 320.2331,-328.5001 320.2332,-335.5001"/>
</g>
<!-- MapModule -->
<g id="node13" class="node">
<title>MapModule</title>
<polygon fill="#8dd3c7" stroke="#000000" points="523.7093,-274 520.7093,-278 499.7093,-278 496.7093,-274 438.2907,-274 438.2907,-238 523.7093,-238 523.7093,-274"/>
<text text-anchor="middle" x="481" y="-251.8" font-family="Times,serif" font-size="14.00" fill="#000000">MapModule</text>
</g>
<!-- MapModule&#45;&gt;MainModule -->
<g id="edge11" class="edge">
<title>MapModule&#45;&gt;MainModule</title>
<path fill="none" stroke="#000000" d="M481,-274.0109C481,-296.4852 481,-332 481,-332 481,-332 429.6463,-332 429.6463,-332"/>
<polygon fill="#000000" stroke="#000000" points="429.6464,-328.5001 419.6463,-332 429.6463,-335.5001 429.6464,-328.5001"/>
</g>
<!-- MapComponent  -->
<g id="node16" class="node">
<title>MapComponent </title>
<polygon fill="#fb8072" stroke="#000000" points="674.4927,-350 563.5073,-350 563.5073,-314 674.4927,-314 674.4927,-350"/>
<text text-anchor="middle" x="619" y="-327.8" font-family="Times,serif" font-size="14.00" fill="#000000">MapComponent </text>
</g>
<!-- MapModule&#45;&gt;MapComponent  -->
<g id="edge14" class="edge">
<title>MapModule&#45;&gt;MapComponent </title>
<path fill="none" stroke="#000000" stroke-dasharray="5,2" d="M523.6656,-256C546.0628,-256 568.9062,-256 568.9062,-256 568.9062,-256 568.9062,-303.9891 568.9062,-303.9891"/>
<polygon fill="#000000" stroke="#000000" points="565.4063,-303.989 568.9062,-313.9891 572.4063,-303.9891 565.4063,-303.989"/>
</g>
<!-- PanelModule&#45;&gt;MainModule -->
<g id="edge12" class="edge">
<title>PanelModule&#45;&gt;MainModule</title>
<path fill="none" stroke="#000000" d="M375,-274.0109C375,-274.0109 375,-303.855 375,-303.855"/>
<polygon fill="#000000" stroke="#000000" points="371.5001,-303.8549 375,-313.855 378.5001,-303.855 371.5001,-303.8549"/>
</g>
<!-- PanelComponent  -->
<g id="node21" class="node">
<title>PanelComponent </title>
<polygon fill="#fb8072" stroke="#000000" points="139.9348,-198 24.0652,-198 24.0652,-162 139.9348,-162 139.9348,-198"/>
<text text-anchor="middle" x="82" y="-175.8" font-family="Times,serif" font-size="14.00" fill="#000000">PanelComponent </text>
</g>
<!-- PanelModule&#45;&gt;PanelComponent  -->
<g id="edge20" class="edge">
<title>PanelModule&#45;&gt;PanelComponent </title>
<path fill="none" stroke="#000000" stroke-dasharray="5,2" d="M347.8043,-237.8533C347.8043,-224.2605 347.8043,-208 347.8043,-208 347.8043,-208 82,-208 82,-208 82,-208 82,-207.0207 82,-207.0207"/>
<polygon fill="#000000" stroke="#000000" points="85.5001,-208.2069 82,-198.207 78.5001,-208.207 85.5001,-208.2069"/>
</g>
<!-- MapComponent -->
<g id="node15" class="node">
<title>MapComponent</title>
<polygon fill="#ffffb3" stroke="#000000" points="804.4916,-350 697.5084,-350 697.5084,-314 804.4916,-314 804.4916,-350"/>
<text text-anchor="middle" x="751" y="-327.8" font-family="Times,serif" font-size="14.00" fill="#000000">MapComponent</text>
</g>
<!-- MapComponent&#45;&gt;MapModule -->
<g id="edge13" class="edge">
<title>MapComponent&#45;&gt;MapModule</title>
<path fill="none" stroke="#000000" d="M751,-313.9737C751,-289.0227 751,-247 751,-247 751,-247 533.7823,-247 533.7823,-247"/>
<polygon fill="#000000" stroke="#000000" points="533.7823,-243.5001 523.7823,-247 533.7823,-250.5001 533.7823,-243.5001"/>
</g>
<!-- GpsComponent -->
<g id="node17" class="node">
<title>GpsComponent</title>
<polygon fill="#ffffb3" stroke="#000000" points="677.8837,-198 574.1163,-198 574.1163,-162 677.8837,-162 677.8837,-198"/>
<text text-anchor="middle" x="626" y="-175.8" font-family="Times,serif" font-size="14.00" fill="#000000">GpsComponent</text>
</g>
<!-- GpsComponent&#45;&gt;PanelModule -->
<g id="edge15" class="edge">
<title>GpsComponent&#45;&gt;PanelModule</title>
<path fill="none" stroke="#000000" d="M624.152,-198.1097C624.152,-207.897 624.152,-218 624.152,-218 624.152,-218 384.0652,-218 384.0652,-218 384.0652,-218 384.0652,-227.8903 384.0652,-227.8903"/>
<polygon fill="#000000" stroke="#000000" points="380.5653,-227.8903 384.0652,-237.8903 387.5653,-227.8904 380.5653,-227.8903"/>
</g>
<!-- PanelComponent -->
<g id="node18" class="node">
<title>PanelComponent</title>
<polygon fill="#ffffb3" stroke="#000000" points="556.4356,-198 443.5644,-198 443.5644,-162 556.4356,-162 556.4356,-198"/>
<text text-anchor="middle" x="500" y="-175.8" font-family="Times,serif" font-size="14.00" fill="#000000">PanelComponent</text>
</g>
<!-- PanelComponent&#45;&gt;PanelModule -->
<g id="edge16" class="edge">
<title>PanelComponent&#45;&gt;PanelModule</title>
<path fill="none" stroke="#000000" d="M443.7679,-180C436.9187,-180 432.2802,-180 432.2802,-180 432.2802,-180 432.2802,-256 432.2802,-256 432.2802,-256 430.4117,-256 430.4117,-256"/>
<polygon fill="#000000" stroke="#000000" points="430.4117,-252.5001 420.4117,-256 430.4116,-259.5001 430.4117,-252.5001"/>
</g>
<!-- TspComponent -->
<g id="node19" class="node">
<title>TspComponent</title>
<polygon fill="#ffffb3" stroke="#000000" points="426.3301,-198 323.6699,-198 323.6699,-162 426.3301,-162 426.3301,-198"/>
<text text-anchor="middle" x="375" y="-175.8" font-family="Times,serif" font-size="14.00" fill="#000000">TspComponent</text>
</g>
<!-- TspComponent&#45;&gt;PanelModule -->
<g id="edge17" class="edge">
<title>TspComponent&#45;&gt;PanelModule</title>
<path fill="none" stroke="#000000" d="M365.9348,-198.0109C365.9348,-198.0109 365.9348,-227.855 365.9348,-227.855"/>
<polygon fill="#000000" stroke="#000000" points="362.4349,-227.8549 365.9348,-237.855 369.4349,-227.855 362.4349,-227.8549"/>
</g>
<!-- PanelRoutingModule -->
<g id="node20" class="node">
<title>PanelRoutingModule</title>
<polygon fill="#8dd3c7" stroke="#000000" points="299.7702,-198 296.7702,-202 275.7702,-202 272.7702,-198 164.2298,-198 164.2298,-162 299.7702,-162 299.7702,-198"/>
<text text-anchor="middle" x="232" y="-175.8" font-family="Times,serif" font-size="14.00" fill="#000000">PanelRoutingModule</text>
</g>
<!-- PanelRoutingModule&#45;&gt;PanelModule -->
<g id="edge19" class="edge">
<title>PanelRoutingModule&#45;&gt;PanelModule</title>
<path fill="none" stroke="#000000" d="M299.8893,-180C308.9221,-180 315.1382,-180 315.1382,-180 315.1382,-180 315.1382,-256 315.1382,-256 315.1382,-256 319.629,-256 319.629,-256"/>
<polygon fill="#000000" stroke="#000000" points="319.6291,-259.5001 329.629,-256 319.629,-252.5001 319.6291,-259.5001"/>
</g>
<!-- CapitalizePipe -->
<g id="node22" class="node">
<title>CapitalizePipe</title>
<polygon fill="#ffffb3" stroke="#000000" points="1399.6458,-122 1302.3542,-122 1302.3542,-86 1399.6458,-86 1399.6458,-122"/>
<text text-anchor="middle" x="1351" y="-99.8" font-family="Times,serif" font-size="14.00" fill="#000000">CapitalizePipe</text>
</g>
<!-- PipesModule -->
<g id="node23" class="node">
<title>PipesModule</title>
<polygon fill="#8dd3c7" stroke="#000000" points="1395.8823,-198 1392.8823,-202 1371.8823,-202 1368.8823,-198 1306.1177,-198 1306.1177,-162 1395.8823,-162 1395.8823,-198"/>
<text text-anchor="middle" x="1351" y="-175.8" font-family="Times,serif" font-size="14.00" fill="#000000">PipesModule</text>
</g>
<!-- CapitalizePipe&#45;&gt;PipesModule -->
<g id="edge21" class="edge">
<title>CapitalizePipe&#45;&gt;PipesModule</title>
<path fill="none" stroke="#000000" d="M1351,-122.0109C1351,-122.0109 1351,-151.855 1351,-151.855"/>
<polygon fill="#000000" stroke="#000000" points="1347.5001,-151.8549 1351,-161.855 1354.5001,-151.855 1347.5001,-151.8549"/>
</g>
<!-- CapitalizePipe  -->
<g id="node24" class="node">
<title>CapitalizePipe </title>
<polygon fill="#fb8072" stroke="#000000" points="1401.6453,-274 1300.3547,-274 1300.3547,-238 1401.6453,-238 1401.6453,-274"/>
<text text-anchor="middle" x="1351" y="-251.8" font-family="Times,serif" font-size="14.00" fill="#000000">CapitalizePipe </text>
</g>
<!-- PipesModule&#45;&gt;CapitalizePipe  -->
<g id="edge22" class="edge">
<title>PipesModule&#45;&gt;CapitalizePipe </title>
<path fill="none" stroke="#000000" stroke-dasharray="5,2" d="M1351,-198.0109C1351,-198.0109 1351,-227.855 1351,-227.855"/>
<polygon fill="#000000" stroke="#000000" points="1347.5001,-227.8549 1351,-237.855 1354.5001,-227.855 1347.5001,-227.8549"/>
</g>
</g>
</svg>
